<svg class="svg-cloud" width="135" height="135" version="1.1" viewBox="0 0 135 135" xmlns="http://www.w3.org/2000/svg">
 <path d="m74.1 25.7a25.6 25.6 0 0 0-25.1 21.9 15 15 0 0 0-12.2-6.28 15 15 0 0 0-15 15 15 15 0 0 0 0.389 3.39c-0.3 0.35-0.591 0.707-0.875 1.07-9.55 3.51-16.3 12.7-16.3 23.5 0 13.9 11.2 25 25 25h70c16.6 0 30-13.4 30-30 0-16.6-13.4-30-30-30h-0.0703a25.6 25.6 0 0 0-25.5-23.6 25.6 25.6 0 0 0-0.242 0z" fill="none" stroke-linecap="round" stroke-width="2" style="paint-order:fill markers stroke"/>
</svg>
