<svg class="svg-rain-cloud" width="135" height="135" version="1.1" viewBox="0 0 135 135" xmlns="http://www.w3.org/2000/svg">
 <g fill="none" stroke-linecap="round" stroke-width="1.86">
  <path d="m73.7 3.07a23.8 23.8 0 0 0-23.4 20.4 13.9 13.9 0 0 0-11.3-5.83 13.9 13.9 0 0 0-13.9 13.9 13.9 13.9 0 0 0 0.361 3.16c-0.279 0.325-0.55 0.657-0.814 0.995-8.88 3.26-15.2 11.8-15.2 21.8 0 12.9 10.4 23.2 23.2 23.2h65.1c15.5 0 27.9-12.4 27.9-27.9 0-15.5-12.4-27.9-27.9-27.9h-0.0654a23.8 23.8 0 0 0-23.8-21.9 23.8 23.8 0 0 0-0.225 0z" style="paint-order:fill markers stroke"/>
  <g>
   <path d="m30.3 90.1v32.5"/>
   <path d="m45.2 99.4v32.5"/>
   <path d="m60.1 90.1v32.5"/>
   <path d="m74.9 99.4v32.5"/>
   <path d="m89.8 90.1v32.5"/>
   <path d="m105 99.4v32.5"/>
  </g>
 </g>
</svg>
