<svg class="svg-snowflake" width="135" height="135" version="1.1" viewBox="0 0 135 135" xmlns="http://www.w3.org/2000/svg">
 <g transform="translate(-7.5,-7.5)" fill="none" stroke-linecap="round">
  <path d="m75 30v90" stroke-width="1.95"/>
  <g stroke-width="2">
   <path d="m75 120 15 20"/>
   <path d="m75 120-15 20"/>
   <path d="m75 30 15-20"/>
   <path d="m75 30-15-20"/>
  </g>
  <g transform="rotate(60,75,75)">
   <path d="m75 30v90" stroke-width="1.95"/>
   <g stroke-width="2">
    <path d="m75 120 15 20"/>
    <path d="m75 120-15 20"/>
    <path d="m75 30 15-20"/>
    <path d="m75 30-15-20"/>
   </g>
  </g>
  <g transform="rotate(120,75,75)">
   <path d="m75 30v90" stroke-width="1.95"/>
   <g stroke-width="2">
    <path d="m75 120 15 20"/>
    <path d="m75 120-15 20"/>
    <path d="m75 30 15-20"/>
    <path d="m75 30-15-20"/>
   </g>
  </g>
 </g>
</svg>
