<svg class="svg-sun-cloud" width="135" height="135" version="1.1" viewBox="0 0 135 135" xmlns="http://www.w3.org/2000/svg">
 <g transform="matrix(.93 0 0 .93 -3.85 .0167)" fill="none" stroke-width="2">
  <path d="m98.5 36.7a29.6 29.6 0 0 0-21.8 9.93 25.6 25.6 0 0 1 0.277-0.0059 25.6 25.6 0 0 1 0.242 0 25.6 25.6 0 0 1 25.5 23.6h0.0703c8.8 0 16.7 3.76 22.2 9.76a29.6 29.6 0 0 0 3.36-13.7 29.6 29.6 0 0 0-29.6-29.6 29.6 29.6 0 0 0-0.268 0z" stroke-linecap="round" style="paint-order:fill markers stroke"/>
  <path d="m77 46.7a25.6 25.6 0 0 0-25.1 21.9 15 15 0 0 0-12.2-6.28 15 15 0 0 0-15 15 15 15 0 0 0 0.389 3.39c-0.3 0.35-0.591 0.707-0.875 1.07-9.55 3.51-16.3 12.7-16.3 23.5 0 13.9 11.2 25 25 25h70c16.6 0 30-13.4 30-30 0-16.6-13.4-30-30-30h-0.0703a25.6 25.6 0 0 0-25.5-23.6 25.6 25.6 0 0 0-0.242 0z" stroke-linecap="round" style="paint-order:fill markers stroke"/>
  <g>
   <path d="m92.7 14.1 5.18 19.3"/>
   <path d="m115 15.4-5.18 19.3"/>
   <path d="m134 26.9-14.1 14.1"/>
   <path d="m146 42.8-19.3 5.18"/>
  </g>
 </g>
</svg>
